<?xml version="1.0" encoding="utf-8"?>
<!-- Generated by IcoMoon.io -->
<!DOCTYPE svg PUBLIC "-//W3C//DTD SVG 1.1//EN" "http://www.w3.org/Graphics/SVG/1.1/DTD/svg11.dtd">
<svg version="1.1" xmlns="http://www.w3.org/2000/svg" xmlns:xlink="http://www.w3.org/1999/xlink" width="512" height="512" viewBox="0 0 512 512">
<g>
</g>
	<path d="M265.36 80.169h165.878v246.487h-165.878v-246.487z" fill="#000000" />
	<path d="M79.575 80.169h165.918v246.487h-165.918v-246.487z" fill="#000000" />
	<path d="M417.116 102.922l40.663 31.089-4.014-8.141v229.13l10.24-10.24h-196.669l-18.862 28.242 15.77-1.567-26.706-26.675h-190.669l10.24 10.24v-227.543l-3.748 7.905 40.704-33.454-13.005-15.811-44.431 36.516v242.627h196.669l-7.239-3 32.512 32.502 22.774-34.058-8.519 4.557h201.421v-244.429l-4.024-3.072-40.663-31.088z" fill="#000000" />
	<path d="M418.345 107.315h83.794l-10.24-10.281-1.096 291.103 10.24-10.199h-213.698l-33.403 32.962 13.537-0.738-42.803-33.802h-214.856l10.24 10.24v-286.003l-10.178 10.24 79.278-0.471-0.123-20.48-89.457 0.532v306.422h221.543l-6.349-2.202 47.125 37.202 36.823-36.362-7.178 2.939h219.699l0.041-10.199 1.095-291.103 0.041-10.281h-94.075z" fill="#000000" />
</svg>
