<?xml version="1.0" encoding="utf-8"?>
<!-- Generated by IcoMoon.io -->
<!DOCTYPE svg PUBLIC "-//W3C//DTD SVG 1.1//EN" "http://www.w3.org/Graphics/SVG/1.1/DTD/svg11.dtd">
<svg version="1.1" xmlns="http://www.w3.org/2000/svg" xmlns:xlink="http://www.w3.org/1999/xlink" width="512" height="512" viewBox="0 0 512 512">
<g>
</g>
	<path d="M205.23 222.7h100.638c19.998-14.357 44.861-23.019 71.865-23.019 66.263 0 119.9 51.825 119.9 115.743s-53.637 115.804-119.9 115.804c-50.063 0-93.102-29.737-110.94-71.885h-21.238c-17.643 42.537-60.846 72.56-111.278 72.56-66.058 0-119.9-51.845-119.9-115.763s53.842-115.784 119.9-115.784c26.491 0 50.964 8.284 70.953 22.344v0zM42.619 80.097c25.6 160.041 153.958-14.94 204.38 108.923h-41.052v18.196h100.096v-18.197h-57.436c3.42-136.478-175.37 22.856-205.988-108.923v0zM328.377 294.564c-9.923 0-18.002 8.079-18.002 17.981 0 10.076 8.079 18.217 18.002 18.217 10.076 0 18.176-8.141 18.176-18.217 0.010-9.902-8.089-17.981-18.176-17.981v0zM379.341 248.781c-10.076 0-18.197 8.161-18.197 18.217 0 9.882 8.12 17.981 18.197 17.981s18.176-8.1 18.176-17.981c0-10.055-8.1-18.217-18.176-18.217v0zM427.018 294.564c-10.055 0-18.156 8.079-18.156 17.981 0 10.076 8.1 18.217 18.156 18.217 9.923 0 18.022-8.141 18.022-18.217 0-9.902-8.1-17.981-18.022-17.981v0zM379.341 345.856c-10.076 0-18.197 8.1-18.197 18.197 0 9.882 8.12 17.981 18.197 17.981s18.176-8.1 18.176-17.981c0-10.096-8.1-18.197-18.176-18.197v0zM201.267 327.659v-23.582h-54.917v-55.818h-23.951v55.818h-55.982v23.582h55.982v56.382h23.951v-56.382h54.917z" fill="#000000" />
</svg>
